<svg width="256" height="256" viewBox="0 0 256 256" fill="none" xmlns="http://www.w3.org/2000/svg">
<path d="M204.878 128.005C231.694 104.338 248.015 79.8979 238.842 64.0025C235.852 58.8294 228.669 52.6663 211.373 52.6663C199.067 52.6663 183.528 55.8246 166.454 61.4976C159.37 26.4 146.361 0 127.995 0C109.634 0 96.625 26.4 89.5361 61.4976C72.4625 55.8246 56.9235 52.6663 44.622 52.6663C27.3257 52.6663 20.1378 58.8344 17.1479 64.0074C7.96999 79.9078 24.3159 104.357 51.1515 128.035C45.0676 133.445 39.5034 138.871 34.7016 144.227C16.7419 164.276 10.6679 180.8 17.138 192.002C20.1279 197.176 27.3207 203.339 44.6171 203.339C56.9235 203.339 72.4675 200.18 89.5411 194.507C96.625 229.605 109.634 256 127.995 256C146.361 256 159.365 229.605 166.449 194.512C183.523 200.185 199.062 203.344 211.373 203.344C211.378 203.344 211.383 203.344 211.383 203.344C228.674 203.344 235.862 197.18 238.852 192.007C248.03 176.117 231.699 151.677 204.878 128.005ZM211.378 60.7897C218.784 60.7897 228.343 62.0521 231.803 68.0617C237.491 77.9128 225.07 99.1694 198.562 122.604C190.314 115.768 181.28 109.06 171.82 102.699C171.043 91.3034 169.751 80.1009 167.944 69.5221C184.547 63.9134 199.586 60.7897 211.378 60.7897ZM146.281 159.667C140.188 163.187 134.074 166.464 127.99 169.533C121.911 166.464 115.798 163.187 109.709 159.672C103.481 156.078 97.6299 152.415 92.0014 148.727C91.6301 142.049 91.4222 135.143 91.4222 128C91.4222 120.852 91.6301 113.936 92.0014 107.258C97.714 103.526 103.6 99.8575 109.714 96.328C115.802 92.8132 121.916 89.5361 127.995 86.4669C134.074 89.5361 140.193 92.8132 146.286 96.3329C152.514 99.9268 158.365 103.59 163.994 107.278C164.365 113.951 164.573 120.862 164.573 128C164.573 135.138 164.365 142.049 163.994 148.722C158.36 152.41 152.509 156.073 146.281 159.667ZM163.281 158.875C162.528 167.677 161.464 175.973 160.152 183.716C152.677 180.919 144.955 177.666 137.109 173.988C141.519 171.672 145.94 169.256 150.341 166.716C154.697 164.202 159.014 161.578 163.281 158.875ZM118.872 173.983C111.025 177.661 103.308 180.919 95.8329 183.711C94.5211 175.973 93.4568 167.677 92.7093 158.875C96.9764 161.573 101.293 164.202 105.649 166.716C110.045 169.256 114.461 171.672 118.872 173.983ZM83.6156 143.064C76.3832 138.019 69.725 132.965 63.6906 127.97C69.8488 122.886 76.5366 117.857 83.6156 112.926C83.4126 117.951 83.2988 122.99 83.2988 128C83.2988 133.01 83.4126 138.039 83.6156 143.064ZM92.7093 97.1398C93.4617 88.3332 94.5261 80.0316 95.8379 72.2893C103.313 75.0813 111.035 78.3386 118.882 82.0166C114.466 84.3334 110.05 86.7491 105.644 89.2886C101.224 91.843 96.9319 94.4765 92.7093 97.1398ZM137.109 82.0166C144.955 78.3386 152.677 75.0813 160.152 72.2893C161.464 80.0316 162.528 88.3283 163.281 97.1299C159.019 94.432 154.697 91.8083 150.346 89.2936C145.945 86.7491 141.524 84.3334 137.109 82.0166ZM172.375 112.941C179.587 117.971 186.23 123.015 192.255 128C186.23 132.985 179.587 138.024 172.375 143.059C172.577 138.039 172.691 133.01 172.691 128C172.691 122.99 172.577 117.961 172.375 112.941ZM127.995 8.12345C139.386 8.12345 151.628 29.4741 158.667 64.2203C148.757 67.8588 138.44 72.2645 127.995 77.3831C117.55 72.2695 107.233 67.8588 97.323 64.2203C104.362 29.4741 116.604 8.12345 127.995 8.12345ZM24.1822 68.0667C27.6524 62.0521 37.2114 60.7897 44.6171 60.7897C56.4038 60.7897 71.4428 63.9134 88.0461 69.5221C86.2442 80.091 84.9472 91.2786 84.17 102.659C74.5219 109.124 65.5371 115.822 57.4136 122.594C30.9146 99.1694 18.4943 77.9178 24.1822 68.0667ZM44.622 195.21C44.6171 195.21 44.6121 195.21 44.6121 195.21C37.2065 195.21 27.6524 193.948 24.1773 187.933C19.8309 180.404 26.0287 166.093 40.7608 149.648C45.5774 144.272 51.2109 138.811 57.3889 133.371C65.646 140.222 74.6951 146.94 84.17 153.311C84.9472 164.706 86.2442 175.904 88.0461 186.483C71.4428 192.092 56.4087 195.215 44.622 195.21ZM127.995 247.877C116.604 247.877 104.362 226.531 97.323 191.785C107.233 188.146 117.545 183.74 127.99 178.627C138.435 183.745 148.752 188.151 158.662 191.79C151.628 226.531 139.381 247.877 127.995 247.877ZM231.808 187.938C228.338 193.953 218.784 195.215 211.373 195.215C199.581 195.215 184.542 192.092 167.944 186.483C169.751 175.904 171.043 164.706 171.82 153.311C181.285 146.955 190.319 140.242 198.567 133.401C225.075 156.836 237.496 178.087 231.808 187.938ZM127.99 107.684C116.788 107.684 107.674 116.797 107.674 128C107.674 139.198 116.788 148.316 127.99 148.316C139.198 148.316 148.311 139.203 148.306 128C148.306 116.797 139.198 107.684 127.99 107.684ZM127.99 140.193C121.273 140.193 115.802 134.723 115.802 128C115.802 121.277 121.273 115.812 127.99 115.812C134.713 115.812 140.183 121.277 140.183 128C140.183 134.727 134.713 140.193 127.99 140.193Z" fill="url(#paint0_linear_201_2)"/>
<defs>
<linearGradient id="paint0_linear_201_2" x1="224.53" y1="30.7624" x2="36.7735" y2="213.215" gradientUnits="userSpaceOnUse">
<stop stop-color="#AD5EBA"/>
<stop offset="0.0001" stop-color="#BA2BBD"/>
<stop offset="1" stop-color="#D94E4E"/>
</linearGradient>
</defs>
</svg>
